<svg width="98" height="114" viewBox="0 0 98 114" fill="none" xmlns="http://www.w3.org/2000/svg">
    <path fill-rule="evenodd" clip-rule="evenodd"
        d="M4 18C4 19.1046 3.10457 20 2 20C0.89543 20 0 19.1046 0 18C0 16.8954 0.89543 16 2 16C3.10457 16 4 16.8954 4 18ZM20 18C20 19.1046 19.1046 20 18 20C16.8954 20 16 19.1046 16 18C16 16.8954 16.8954 16 18 16C19.1046 16 20 16.8954 20 18ZM34 20C35.1046 20 36 19.1046 36 18C36 16.8954 35.1046 16 34 16C32.8954 16 32 16.8954 32 18C32 19.1046 32.8954 20 34 20ZM52 18C52 19.1046 51.1046 20 50 20C48.8954 20 48 19.1046 48 18C48 16.8954 48.8954 16 50 16C51.1046 16 52 16.8954 52 18ZM66 20C67.1046 20 68 19.1046 68 18C68 16.8954 67.1046 16 66 16C64.8954 16 64 16.8954 64 18C64 19.1046 64.8954 20 66 20ZM84 18C84 19.1046 83.1046 20 82 20C80.8954 20 80 19.1046 80 18C80 16.8954 80.8954 16 82 16C83.1046 16 84 16.8954 84 18Z"
        fill="#1374F6" fill-opacity="0.2" />
    <path fill-rule="evenodd" clip-rule="evenodd"
        d="M4 2C4 3.10457 3.10457 4 2 4C0.89543 4 0 3.10457 0 2C0 0.89543 0.89543 0 2 0C3.10457 0 4 0.89543 4 2ZM20 2C20 3.10457 19.1046 4 18 4C16.8954 4 16 3.10457 16 2C16 0.89543 16.8954 0 18 0C19.1046 0 20 0.89543 20 2ZM34 4C35.1046 4 36 3.10457 36 2C36 0.89543 35.1046 0 34 0C32.8954 0 32 0.89543 32 2C32 3.10457 32.8954 4 34 4ZM52 2C52 3.10457 51.1046 4 50 4C48.8954 4 48 3.10457 48 2C48 0.89543 48.8954 0 50 0C51.1046 0 52 0.89543 52 2ZM66 4C67.1046 4 68 3.10457 68 2C68 0.89543 67.1046 0 66 0C64.8954 0 64 0.89543 64 2C64 3.10457 64.8954 4 66 4ZM84 2C84 3.10457 83.1046 4 82 4C80.8954 4 80 3.10457 80 2C80 0.89543 80.8954 0 82 0C83.1046 0 84 0.89543 84 2Z"
        fill="#1374F6" fill-opacity="0.2" />
    <path fill-rule="evenodd" clip-rule="evenodd"
        d="M10 36C11.1046 36 12 35.1046 12 34C12 32.8954 11.1046 32 10 32C8.89543 32 8 32.8954 8 34C8 35.1046 8.89543 36 10 36ZM12 50C12 51.1046 11.1046 52 10 52C8.89543 52 8 51.1046 8 50C8 48.8954 8.89543 48 10 48C11.1046 48 12 48.8954 12 50ZM28 50C28 51.1046 27.1046 52 26 52C24.8954 52 24 51.1046 24 50C24 48.8954 24.8954 48 26 48C27.1046 48 28 48.8954 28 50ZM42 52C43.1046 52 44 51.1046 44 50C44 48.8954 43.1046 48 42 48C40.8954 48 40 48.8954 40 50C40 51.1046 40.8954 52 42 52ZM60 50C60 51.1046 59.1046 52 58 52C56.8954 52 56 51.1046 56 50C56 48.8954 56.8954 48 58 48C59.1046 48 60 48.8954 60 50ZM74 52C75.1046 52 76 51.1046 76 50C76 48.8954 75.1046 48 74 48C72.8954 48 72 48.8954 72 50C72 51.1046 72.8954 52 74 52ZM92 50C92 51.1046 91.1046 52 90 52C88.8954 52 88 51.1046 88 50C88 48.8954 88.8954 48 90 48C91.1046 48 92 48.8954 92 50ZM28 34C28 35.1046 27.1046 36 26 36C24.8954 36 24 35.1046 24 34C24 32.8954 24.8954 32 26 32C27.1046 32 28 32.8954 28 34ZM42 36C43.1046 36 44 35.1046 44 34C44 32.8954 43.1046 32 42 32C40.8954 32 40 32.8954 40 34C40 35.1046 40.8954 36 42 36ZM60 34C60 35.1046 59.1046 36 58 36C56.8954 36 56 35.1046 56 34C56 32.8954 56.8954 32 58 32C59.1046 32 60 32.8954 60 34ZM74 36C75.1046 36 76 35.1046 76 34C76 32.8954 75.1046 32 74 32C72.8954 32 72 32.8954 72 34C72 35.1046 72.8954 36 74 36ZM92 34C92 35.1046 91.1046 36 90 36C88.8954 36 88 35.1046 88 34C88 32.8954 88.8954 32 90 32C91.1046 32 92 32.8954 92 34Z"
        fill="#1374F6" fill-opacity="0.2" />
    <path fill-rule="evenodd" clip-rule="evenodd"
        d="M43 80C43 81.1046 42.1046 82 41 82C39.8954 82 39 81.1046 39 80C39 78.8954 39.8954 78 41 78C42.1046 78 43 78.8954 43 80ZM59 80C59 81.1046 58.1046 82 57 82C55.8954 82 55 81.1046 55 80C55 78.8954 55.8954 78 57 78C58.1046 78 59 78.8954 59 80ZM73 82C74.1046 82 75 81.1046 75 80C75 78.8954 74.1046 78 73 78C71.8954 78 71 78.8954 71 80C71 81.1046 71.8954 82 73 82ZM91 80C91 81.1046 90.1046 82 89 82C87.8954 82 87 81.1046 87 80C87 78.8954 87.8954 78 89 78C90.1046 78 91 78.8954 91 80ZM105 82C106.105 82 107 81.1046 107 80C107 78.8954 106.105 78 105 78C103.895 78 103 78.8954 103 80C103 81.1046 103.895 82 105 82ZM123 80C123 81.1046 122.105 82 121 82C119.895 82 119 81.1046 119 80C119 78.8954 119.895 78 121 78C122.105 78 123 78.8954 123 80Z"
        fill="#1374F6" fill-opacity="0.2" />
    <path fill-rule="evenodd" clip-rule="evenodd"
        d="M43 64C43 65.1046 42.1046 66 41 66C39.8954 66 39 65.1046 39 64C39 62.8954 39.8954 62 41 62C42.1046 62 43 62.8954 43 64ZM59 64C59 65.1046 58.1046 66 57 66C55.8954 66 55 65.1046 55 64C55 62.8954 55.8954 62 57 62C58.1046 62 59 62.8954 59 64ZM73 66C74.1046 66 75 65.1046 75 64C75 62.8954 74.1046 62 73 62C71.8954 62 71 62.8954 71 64C71 65.1046 71.8954 66 73 66ZM91 64C91 65.1046 90.1046 66 89 66C87.8954 66 87 65.1046 87 64C87 62.8954 87.8954 62 89 62C90.1046 62 91 62.8954 91 64ZM105 66C106.105 66 107 65.1046 107 64C107 62.8954 106.105 62 105 62C103.895 62 103 62.8954 103 64C103 65.1046 103.895 66 105 66ZM123 64C123 65.1046 122.105 66 121 66C119.895 66 119 65.1046 119 64C119 62.8954 119.895 62 121 62C122.105 62 123 62.8954 123 64Z"
        fill="#1374F6" fill-opacity="0.2" />
    <path fill-rule="evenodd" clip-rule="evenodd"
        d="M49 98C50.1046 98 51 97.1046 51 96C51 94.8954 50.1046 94 49 94C47.8954 94 47 94.8954 47 96C47 97.1046 47.8954 98 49 98ZM51 112C51 113.105 50.1046 114 49 114C47.8954 114 47 113.105 47 112C47 110.895 47.8954 110 49 110C50.1046 110 51 110.895 51 112ZM67 112C67 113.105 66.1046 114 65 114C63.8954 114 63 113.105 63 112C63 110.895 63.8954 110 65 110C66.1046 110 67 110.895 67 112ZM81 114C82.1046 114 83 113.105 83 112C83 110.895 82.1046 110 81 110C79.8954 110 79 110.895 79 112C79 113.105 79.8954 114 81 114ZM99 112C99 113.105 98.1046 114 97 114C95.8954 114 95 113.105 95 112C95 110.895 95.8954 110 97 110C98.1046 110 99 110.895 99 112ZM113 114C114.105 114 115 113.105 115 112C115 110.895 114.105 110 113 110C111.895 110 111 110.895 111 112C111 113.105 111.895 114 113 114ZM131 112C131 113.105 130.105 114 129 114C127.895 114 127 113.105 127 112C127 110.895 127.895 110 129 110C130.105 110 131 110.895 131 112ZM67 96C67 97.1046 66.1046 98 65 98C63.8954 98 63 97.1046 63 96C63 94.8954 63.8954 94 65 94C66.1046 94 67 94.8954 67 96ZM81 98C82.1046 98 83 97.1046 83 96C83 94.8954 82.1046 94 81 94C79.8954 94 79 94.8954 79 96C79 97.1046 79.8954 98 81 98ZM99 96C99 97.1046 98.1046 98 97 98C95.8954 98 95 97.1046 95 96C95 94.8954 95.8954 94 97 94C98.1046 94 99 94.8954 99 96ZM113 98C114.105 98 115 97.1046 115 96C115 94.8954 114.105 94 113 94C111.895 94 111 94.8954 111 96C111 97.1046 111.895 98 113 98ZM131 96C131 97.1046 130.105 98 129 98C127.895 98 127 97.1046 127 96C127 94.8954 127.895 94 129 94C130.105 94 131 94.8954 131 96Z"
        fill="#1374F6" fill-opacity="0.2" />
</svg>